<svg xmlns="http://www.w3.org/2000/svg" xmlns:xlink="http://www.w3.org/1999/xlink" version="1.1" width="1240px" height="158px" style="shape-rendering:geometricPrecision; text-rendering:geometricPrecision; image-rendering:optimizeQuality; fill-rule:evenodd; clip-rule:evenodd">
  <g><path style="opacity:1" fill="white" d="M 25.5,36.5 C 33.5277,36.169 41.5277,36.5023 49.5,37.5C 45.5,37.8333 41.5,38.1667 37.5,38.5C 33.107,38.4907 29.107,37.824 25.5,36.5 Z"/></g>
  <g><path style="opacity:1" fill="white" d="M 180.5,36.5 C 180.5,37.1667 180.5,37.8333 180.5,38.5C 120.5,37.8333 120.5,37.1667 180.5,36.5 Z"/></g>
  <g><path style="opacity:1" fill="white" d="M 180.5,36.5 C 225.833,37.1667 225.833,37.8333 180.5,38.5C 180.5,37.8333 180.5,37.1667 180.5,36.5 Z"/></g>
  <g><path style="opacity:1" fill="white" d="M 223.5,36.5 C 227.884,36.1744 232.217,36.5078 236.5,37.5C 234.333,37.8333 232.167,38.1667 230,38.5C 227.39,38.4668 225.223,37.8001 223.5,36.5 Z"/></g>
  <g><path style="opacity:1" fill="white" d="M 289.5,36.5 C 304.848,36.1673 320.181,36.5006 335.5,37.5C 327.833,37.8333 320.167,38.1667 312.5,38.5C 304.47,38.4976 296.803,37.8309 289.5,36.5 Z"/></g>
  <g><path style="opacity:1" fill="white" d="M 344.5,36.5 C 356.186,36.1678 367.852,36.5011 379.5,37.5C 373.667,37.8333 367.833,38.1667 362,38.5C 355.793,38.4958 349.96,37.8291 344.5,36.5 Z"/></g>
  <g><path style="opacity:1" fill="white" d="M 399.5,36.5 C 407.528,36.169 415.528,36.5023 423.5,37.5C 419.5,37.8333 415.5,38.1667 411.5,38.5C 407.107,38.4907 403.107,37.824 399.5,36.5 Z"/></g>
  <g><path style="opacity:1" fill="white" d="M 443.5,36.5 C 451.528,36.169 459.528,36.5023 467.5,37.5C 463.5,37.8333 459.5,38.1667 455.5,38.5C 451.107,38.4907 447.107,37.824 443.5,36.5 Z"/></g>
  <g><path style="opacity:1" fill="white" d="M 510.5,36.5 C 510.5,37.1667 510.5,37.8333 510.5,38.5C 465.167,37.8333 465.167,37.1667 510.5,36.5 Z"/></g>
  <g><path style="opacity:1" fill="white" d="M 510.5,36.5 C 541.167,37.1667 541.167,37.8333 510.5,38.5C 510.5,37.8333 510.5,37.1667 510.5,36.5 Z"/></g>
  <g><path style="opacity:1" fill="white" d="M 631.5,36.5 C 631.5,37.1667 631.5,37.8333 631.5,38.5C 586.167,37.8333 586.167,37.1667 631.5,36.5 Z"/></g>
  <g><path style="opacity:1" fill="white" d="M 631.5,36.5 C 662.167,37.1667 662.167,37.8333 631.5,38.5C 631.5,37.8333 631.5,37.1667 631.5,36.5 Z"/></g>
  <g><path style="opacity:1" fill="white" d="M 663.5,36.5 C 675.186,36.1678 686.852,36.5011 698.5,37.5C 692.667,37.8333 686.833,38.1667 681,38.5C 674.793,38.4958 668.96,37.8291 663.5,36.5 Z"/></g>
  <g><path style="opacity:1" fill="white" d="M 773.5,36.5 C 781.528,36.169 789.528,36.5023 797.5,37.5C 793.5,37.8333 789.5,38.1667 785.5,38.5C 781.107,38.4907 777.107,37.824 773.5,36.5 Z"/></g>
  <g><path style="opacity:1" fill="white" d="M 817.5,36.5 C 832.848,36.1673 848.181,36.5006 863.5,37.5C 855.833,37.8333 848.167,38.1667 840.5,38.5C 832.47,38.4976 824.803,37.8309 817.5,36.5 Z"/></g>
  <g><path style="opacity:1" fill="white" d="M 894.5,36.5 C 902.528,36.169 910.528,36.5023 918.5,37.5C 914.5,37.8333 910.5,38.1667 906.5,38.5C 902.107,38.4907 898.107,37.824 894.5,36.5 Z"/></g>
  <g><path style="opacity:1" fill="white" d="M 971.5,36.5 C 986.848,36.1673 1002.18,36.5006 1017.5,37.5C 1009.83,37.8333 1002.17,38.1667 994.5,38.5C 986.47,38.4976 978.803,37.8309 971.5,36.5 Z"/></g>
  <g><path style="opacity:1" fill="white" d="M 1026.5,36.5 C 1037.85,36.1678 1049.19,36.5012 1060.5,37.5C 1054.83,37.8333 1049.17,38.1667 1043.5,38.5C 1037.46,38.4955 1031.79,37.8288 1026.5,36.5 Z"/></g>
  <g><path style="opacity:1" fill="white" d="M 1093.5,36.5 C 1093.5,37.1667 1093.5,37.8333 1093.5,38.5C 1062.83,37.8333 1062.83,37.1667 1093.5,36.5 Z"/></g>
  <g><path style="opacity:1" fill="white" d="M 1093.5,36.5 C 1137.5,37.1667 1137.5,37.8333 1093.5,38.5C 1093.5,37.8333 1093.5,37.1667 1093.5,36.5 Z"/></g>
  <g><path style="opacity:1" fill="white" d="M 1159.5,36.5 C 1159.5,37.1667 1159.5,37.8333 1159.5,38.5C 1128.83,37.8333 1128.83,37.1667 1159.5,36.5 Z"/></g>
  <g><path style="opacity:1" fill="white" d="M 1159.5,36.5 C 1203.5,37.1667 1203.5,37.8333 1159.5,38.5C 1159.5,37.8333 1159.5,37.1667 1159.5,36.5 Z"/></g>
  <g><path style="opacity:1" fill="white" d="M 217.5,41.5 C 218.5,41.5 219.5,41.5 220.5,41.5C 220.5,48.1667 220.5,54.8333 220.5,61.5C 219.5,61.5 218.5,61.5 217.5,61.5C 217.5,54.8333 217.5,48.1667 217.5,41.5 Z"/></g>
  <g><path style="opacity:1" fill="white" d="M 239.5,41.5 C 240.5,41.5 241.5,41.5 242.5,41.5C 242.5,48.1667 242.5,54.8333 242.5,61.5C 241.5,61.5 240.5,61.5 239.5,61.5C 239.5,54.8333 239.5,48.1667 239.5,41.5 Z"/></g>
  <g><path style="opacity:1" fill="white" d="M 393.5,41.5 C 394.5,41.5 395.5,41.5 396.5,41.5C 396.5,48.1667 396.5,54.8333 396.5,61.5C 395.5,61.5 394.5,61.5 393.5,61.5C 393.5,54.8333 393.5,48.1667 393.5,41.5 Z"/></g>
  <g><path style="opacity:1" fill="white" d="M 470.5,41.5 C 471.5,41.5 472.5,41.5 473.5,41.5C 473.5,48.1667 473.5,54.8333 473.5,61.5C 472.5,61.5 471.5,61.5 470.5,61.5C 470.5,54.8333 470.5,48.1667 470.5,41.5 Z"/></g>
  <g><path style="opacity:1" fill="white" d="M 536.5,41.5 C 537.5,41.5 538.5,41.5 539.5,41.5C 539.5,48.1667 539.5,54.8333 539.5,61.5C 538.5,61.5 537.5,61.5 536.5,61.5C 536.5,54.8333 536.5,48.1667 536.5,41.5 Z"/></g>
  <g><path style="opacity:1" fill="white" d="M 591.5,41.5 C 592.5,41.5 593.5,41.5 594.5,41.5C 594.5,48.1667 594.5,54.8333 594.5,61.5C 593.5,61.5 592.5,61.5 591.5,61.5C 591.5,54.8333 591.5,48.1667 591.5,41.5 Z"/></g>
  <g><path style="opacity:1" fill="white" d="M 767.5,41.5 C 768.5,41.5 769.5,41.5 770.5,41.5C 770.5,48.1667 770.5,54.8333 770.5,61.5C 769.5,61.5 768.5,61.5 767.5,61.5C 767.5,54.8333 767.5,48.1667 767.5,41.5 Z"/></g>
  <g><path style="opacity:1" fill="white" d="M 1020.5,41.5 C 1021.5,41.5 1022.5,41.5 1023.5,41.5C 1023.5,48.1667 1023.5,54.8333 1023.5,61.5C 1022.5,61.5 1021.5,61.5 1020.5,61.5C 1020.5,54.8333 1020.5,48.1667 1020.5,41.5 Z"/></g>
  <g><path style="opacity:1" fill="white" d="M 1063.5,41.5 C 1064.83,41.5 1066.17,41.5 1067.5,41.5C 1067.5,48.1667 1067.5,54.8333 1067.5,61.5C 1066.17,61.5 1064.83,61.5 1063.5,61.5C 1063.5,54.8333 1063.5,48.1667 1063.5,41.5 Z"/></g>
  <g><path style="opacity:1" fill="white" d="M 1129.5,41.5 C 1130.83,41.5 1132.17,41.5 1133.5,41.5C 1133.5,48.1667 1133.5,54.8333 1133.5,61.5C 1132.17,61.5 1130.83,61.5 1129.5,61.5C 1129.5,54.8333 1129.5,48.1667 1129.5,41.5 Z"/></g>
  <g><path style="opacity:1" fill="white" d="M 1195.5,41.5 C 1196.83,41.5 1198.17,41.5 1199.5,41.5C 1199.5,48.1667 1199.5,54.8333 1199.5,61.5C 1198.17,61.5 1196.83,61.5 1195.5,61.5C 1195.5,54.8333 1195.5,48.1667 1195.5,41.5 Z"/></g>
  <g><path style="opacity:1" fill="white" d="M 32.5,49.5 C 31.609,48.8902 30.609,48.5569 29.5,48.5C 28.8466,47.1932 28.1799,45.8599 27.5,44.5C 28.6507,43.269 29.8173,43.269 31,44.5C 31.6077,46.1545 32.1077,47.8211 32.5,49.5 Z"/></g>
  <g><path style="opacity:1" fill="white" d="M 54.5,49.5 C 53.609,48.8902 52.609,48.5569 51.5,48.5C 50.8466,47.1932 50.1799,45.8599 49.5,44.5C 50.6507,43.269 51.8173,43.269 53,44.5C 53.6077,46.1545 54.1077,47.8211 54.5,49.5 Z"/></g>
  <g><path style="opacity:1" fill="white" d="M 383.5,47.5 C 384.167,50.8333 384.833,54.1667 385.5,57.5C 383.275,53.3771 381.275,49.0437 379.5,44.5C 382.064,43.4356 383.397,44.4356 383.5,47.5 Z"/></g>
  <g><path style="opacity:1" fill="white" d="M 427.5,47.5 C 428.167,50.8333 428.833,54.1667 429.5,57.5C 427.275,53.3771 425.275,49.0437 423.5,44.5C 426.064,43.4356 427.397,44.4356 427.5,47.5 Z"/></g>
  <g><path style="opacity:1" fill="white" d="M 702.5,47.5 C 703.167,50.8333 703.833,54.1667 704.5,57.5C 702.275,53.3771 700.275,49.0437 698.5,44.5C 701.064,43.4356 702.397,44.4356 702.5,47.5 Z"/></g>
  <g><path style="opacity:1" fill="white" d="M 801.5,47.5 C 802.167,50.8333 802.833,54.1667 803.5,57.5C 801.275,53.3771 799.275,49.0437 797.5,44.5C 800.064,43.4356 801.397,44.4356 801.5,47.5 Z"/></g>
  <g><path style="opacity:1" fill="white" d="M 845.5,47.5 C 846.167,50.8333 846.833,54.1667 847.5,57.5C 845.275,53.3771 843.275,49.0437 841.5,44.5C 844.064,43.4356 845.397,44.4356 845.5,47.5 Z"/></g>
  <g><path style="opacity:1" fill="white" d="M 867.5,47.5 C 868.167,50.8333 868.833,54.1667 869.5,57.5C 867.275,53.3771 865.275,49.0437 863.5,44.5C 866.064,43.4356 867.397,44.4356 867.5,47.5 Z"/></g>
  <g><path style="opacity:1" fill="white" d="M 29.5,48.5 C 30.609,48.5569 31.609,48.8902 32.5,49.5C 33.1667,52.8333 33.8333,56.1667 34.5,59.5C 32.5969,56.0211 30.9302,52.3544 29.5,48.5 Z"/></g>
  <g><path style="opacity:1" fill="white" d="M 51.5,48.5 C 52.609,48.5569 53.609,48.8902 54.5,49.5C 55.1667,52.8333 55.8333,56.1667 56.5,59.5C 54.5969,56.0211 52.9302,52.3544 51.5,48.5 Z"/></g>
  <g><path style="opacity:1" fill="white" d="M 32.5,49.5 C 34.1015,52.1024 35.4348,54.9357 36.5,58C 36.1639,59.0299 35.4972,59.5299 34.5,59.5C 33.8333,56.1667 33.1667,52.8333 32.5,49.5 Z"/></g>
  <g><path style="opacity:1" fill="white" d="M 54.5,49.5 C 56.1015,52.1024 57.4348,54.9357 58.5,58C 58.1639,59.0299 57.4972,59.5299 56.5,59.5C 55.8333,56.1667 55.1667,52.8333 54.5,49.5 Z"/></g>
  <g><path style="opacity:1" fill="white" d="M 132.5,43.5 C 133.675,43.281 134.675,43.6143 135.5,44.5C 133.5,49.1667 131.5,53.8333 129.5,58.5C 128.675,59.3857 127.675,59.719 126.5,59.5C 127.94,53.9536 129.94,48.6202 132.5,43.5 Z"/></g>
  <g><path style="opacity:1" fill="white" d="M 154.5,43.5 C 155.675,43.281 156.675,43.6143 157.5,44.5C 155.5,49.1667 153.5,53.8333 151.5,58.5C 150.675,59.3857 149.675,59.719 148.5,59.5C 149.94,53.9536 151.94,48.6202 154.5,43.5 Z"/></g>
  <g><path style="opacity:1" fill="white" d="M 286.5,43.5 C 287.675,43.281 288.675,43.6143 289.5,44.5C 287.5,49.1667 285.5,53.8333 283.5,58.5C 282.675,59.3857 281.675,59.719 280.5,59.5C 281.94,53.9536 283.94,48.6202 286.5,43.5 Z"/></g>
  <g><path style="opacity:1" fill="white" d="M 335.5,59.5 C 336.71,53.4194 339.21,48.0861 343,43.5C 343.5,43.8333 344,44.1667 344.5,44.5C 342.667,48.8333 340.833,53.1667 339,57.5C 338.29,58.9733 337.124,59.6399 335.5,59.5 Z"/></g>
  <g><path style="opacity:1" fill="white" d="M 440.5,43.5 C 441.552,43.3505 442.552,43.5172 443.5,44C 441.2,49.0676 439.2,54.2343 437.5,59.5C 436.127,59.6567 434.793,59.49 433.5,59C 435.976,53.8819 438.31,48.7152 440.5,43.5 Z"/></g>
  <g><path style="opacity:1" fill="white" d="M 653.5,61.5 C 653.5,60.8333 653.5,60.1667 653.5,59.5C 655.652,54.5259 657.819,49.5259 660,44.5C 661.049,43.4829 662.216,43.3162 663.5,44C 661.2,49.0676 659.2,54.2343 657.5,59.5C 655.801,59.5271 654.467,60.1938 653.5,61.5 Z"/></g>
  <g><path style="opacity:1" fill="white" d="M 814.5,43.5 C 815.552,43.3505 816.552,43.5172 817.5,44C 815.2,49.0676 813.2,54.2343 811.5,59.5C 810.127,59.6567 808.793,59.49 807.5,59C 809.976,53.8819 812.31,48.7152 814.5,43.5 Z"/></g>
  <g><path style="opacity:1" fill="white" d="M 891.5,43.5 C 892.552,43.3505 893.552,43.5172 894.5,44C 892.2,49.0676 890.2,54.2343 888.5,59.5C 887.127,59.6567 885.793,59.49 884.5,59C 886.976,53.8819 889.31,48.7152 891.5,43.5 Z"/></g>
  <g><path style="opacity:1" fill="white" d="M 913.5,43.5 C 914.552,43.3505 915.552,43.5172 916.5,44C 914.2,49.0676 912.2,54.2343 910.5,59.5C 909.127,59.6567 907.793,59.49 906.5,59C 908.976,53.8819 911.31,48.7152 913.5,43.5 Z"/></g>
  <g><path style="opacity:1" fill="white" d="M 968.5,43.5 C 969.552,43.3505 970.552,43.5172 971.5,44C 969.2,49.0676 967.2,54.2343 965.5,59.5C 964.127,59.6567 962.793,59.49 961.5,59C 963.976,53.8819 966.31,48.7152 968.5,43.5 Z"/></g>
  <g><path style="opacity:1" fill="white" d="M 383.5,47.5 C 385.391,50.9572 387.058,54.6239 388.5,58.5C 386.948,59.7979 385.948,59.4646 385.5,57.5C 384.833,54.1667 384.167,50.8333 383.5,47.5 Z"/></g>
  <g><path style="opacity:1" fill="white" d="M 427.5,47.5 C 429.391,50.9572 431.058,54.6239 432.5,58.5C 430.948,59.7979 429.948,59.4646 429.5,57.5C 428.833,54.1667 428.167,50.8333 427.5,47.5 Z"/></g>
  <g><path style="opacity:1" fill="white" d="M 702.5,47.5 C 704.391,50.9572 706.058,54.6239 707.5,58.5C 705.948,59.7979 704.948,59.4646 704.5,57.5C 703.833,54.1667 703.167,50.8333 702.5,47.5 Z"/></g>
  <g><path style="opacity:1" fill="white" d="M 801.5,47.5 C 803.391,50.9572 805.058,54.6239 806.5,58.5C 804.948,59.7979 803.948,59.4646 803.5,57.5C 802.833,54.1667 802.167,50.8333 801.5,47.5 Z"/></g>
  <g><path style="opacity:1" fill="white" d="M 845.5,47.5 C 847.391,50.9572 849.058,54.6239 850.5,58.5C 848.948,59.7979 847.948,59.4646 847.5,57.5C 846.833,54.1667 846.167,50.8333 845.5,47.5 Z"/></g>
  <g><path style="opacity:1" fill="white" d="M 867.5,47.5 C 869.391,50.9572 871.058,54.6239 872.5,58.5C 870.948,59.7979 869.948,59.4646 869.5,57.5C 868.833,54.1667 868.167,50.8333 867.5,47.5 Z"/></g>
  <g><path style="opacity:1" fill="white" d="M 168.5,59.5 C 183.848,59.1673 199.181,59.5006 214.5,60.5C 206.833,60.8333 199.167,61.1667 191.5,61.5C 183.47,61.4976 175.803,60.8309 168.5,59.5 Z"/></g>
  <g><path style="opacity:1" fill="white" d="M 335.5,59.5 C 330.04,60.8291 324.207,61.4958 318,61.5C 312.167,61.1667 306.333,60.8333 300.5,60.5C 312.148,59.5011 323.814,59.1678 335.5,59.5 Z"/></g>
  <g><path style="opacity:1" fill="white" d="M 355.5,59.5 C 359.884,59.1744 364.217,59.5078 368.5,60.5C 366.333,60.8333 364.167,61.1667 362,61.5C 359.39,61.4668 357.223,60.8001 355.5,59.5 Z"/></g>
  <g><path style="opacity:1" fill="white" d="M 487.5,59.5 C 502.848,59.1673 518.181,59.5006 533.5,60.5C 525.833,60.8333 518.167,61.1667 510.5,61.5C 502.47,61.4976 494.803,60.8309 487.5,59.5 Z"/></g>
  <g><path style="opacity:1" fill="white" d="M 597.5,59.5 C 601.884,59.1744 606.217,59.5078 610.5,60.5C 608.333,60.8333 606.167,61.1667 604,61.5C 601.39,61.4668 599.223,60.8001 597.5,59.5 Z"/></g>
  <g><path style="opacity:1" fill="white" d="M 653.5,59.5 C 653.5,60.1667 653.5,60.8333 653.5,61.5C 637.5,60.8333 637.5,60.1667 653.5,59.5 Z"/></g>
  <g><path style="opacity:1" fill="white" d="M 674.5,59.5 C 678.884,59.1744 683.217,59.5078 687.5,60.5C 685.333,60.8333 683.167,61.1667 681,61.5C 678.39,61.4668 676.223,60.8001 674.5,59.5 Z"/></g>
  <g><path style="opacity:1" fill="white" d="M 982.5,59.5 C 994.186,59.1678 1005.85,59.5011 1017.5,60.5C 1011.67,60.8333 1005.83,61.1667 1000,61.5C 993.793,61.4958 987.96,60.8291 982.5,59.5 Z"/></g>
  <g><path style="opacity:1" fill="white" d="M 1026.5,59.5 C 1030.88,59.1744 1035.22,59.5078 1039.5,60.5C 1037.33,60.8333 1035.17,61.1667 1033,61.5C 1030.39,61.4668 1028.22,60.8001 1026.5,59.5 Z"/></g>
  <g><path style="opacity:1" fill="white" d="M 1048.5,59.5 C 1052.55,59.1758 1056.55,59.5091 1060.5,60.5C 1058.5,60.8333 1056.5,61.1667 1054.5,61.5C 1052.05,61.4609 1050.05,60.7943 1048.5,59.5 Z"/></g>
  <g><path style="opacity:1" fill="white" d="M 1070.5,59.5 C 1074.55,59.1758 1078.55,59.5091 1082.5,60.5C 1080.5,60.8333 1078.5,61.1667 1076.5,61.5C 1074.05,61.4609 1072.05,60.7943 1070.5,59.5 Z"/></g>
  <g><path style="opacity:1" fill="white" d="M 1114.5,59.5 C 1118.55,59.1758 1122.55,59.5091 1126.5,60.5C 1124.5,60.8333 1122.5,61.1667 1120.5,61.5C 1118.05,61.4609 1116.05,60.7943 1114.5,59.5 Z"/></g>
  <g><path style="opacity:1" fill="white" d="M 1147.5,59.5 C 1162.51,59.1673 1177.51,59.5007 1192.5,60.5C 1185,60.8333 1177.5,61.1667 1170,61.5C 1162.14,61.4975 1154.64,60.8308 1147.5,59.5 Z"/></g>
  <g><path style="opacity:1" fill="white" d="M 151.5,64.5 C 152.5,64.5 153.5,64.5 154.5,64.5C 154.5,71.1667 154.5,77.8333 154.5,84.5C 153.5,84.5 152.5,84.5 151.5,84.5C 151.5,77.8333 151.5,71.1667 151.5,64.5 Z"/></g>
  <g><path style="opacity:1" fill="white" d="M 195.5,64.5 C 196.5,64.5 197.5,64.5 198.5,64.5C 198.5,71.1667 198.5,77.8333 198.5,84.5C 197.5,84.5 196.5,84.5 195.5,84.5C 195.5,77.8333 195.5,71.1667 195.5,64.5 Z"/></g>
  <g><path style="opacity:1" fill="white" d="M 217.5,64.5 C 218.5,64.5 219.5,64.5 220.5,64.5C 220.5,71.1667 220.5,77.8333 220.5,84.5C 219.5,84.5 218.5,84.5 217.5,84.5C 217.5,77.8333 217.5,71.1667 217.5,64.5 Z"/></g>
  <g><path style="opacity:1" fill="white" d="M 239.5,64.5 C 240.5,64.5 241.5,64.5 242.5,64.5C 242.5,71.1667 242.5,77.8333 242.5,84.5C 241.5,84.5 240.5,84.5 239.5,84.5C 239.5,77.8333 239.5,71.1667 239.5,64.5 Z"/></g>
  <g><path style="opacity:1" fill="white" d="M 272.5,64.5 C 273.5,64.5 274.5,64.5 275.5,64.5C 275.5,71.1667 275.5,77.8333 275.5,84.5C 274.5,84.5 273.5,84.5 272.5,84.5C 272.5,77.8333 272.5,71.1667 272.5,64.5 Z"/></g>
  <g><path style="opacity:1" fill="white" d="M 294.5,64.5 C 295.5,64.5 296.5,64.5 297.5,64.5C 297.5,71.1667 297.5,77.8333 297.5,84.5C 296.5,84.5 295.5,84.5 294.5,84.5C 294.5,77.8333 294.5,71.1667 294.5,64.5 Z"/></g>
  <g><path style="opacity:1" fill="white" d="M 327.5,64.5 C 328.5,64.5 329.5,64.5 330.5,64.5C 330.5,71.1667 330.5,77.8333 330.5,84.5C 329.5,84.5 328.5,84.5 327.5,84.5C 327.5,77.8333 327.5,71.1667 327.5,64.5 Z"/></g>
  <g><path style="opacity:1" fill="white" d="M 349.5,64.5 C 350.5,64.5 351.5,64.5 352.5,64.5C 352.5,71.1667 352.5,77.8333 352.5,84.5C 351.5,84.5 350.5,84.5 349.5,84.5C 349.5,77.8333 349.5,71.1667 349.5,64.5 Z"/></g>
  <g><path style="opacity:1" fill="white" d="M 371.5,64.5 C 372.5,64.5 373.5,64.5 374.5,64.5C 374.5,71.1667 374.5,77.8333 374.5,84.5C 373.5,84.5 372.5,84.5 371.5,84.5C 371.5,77.8333 371.5,71.1667 371.5,64.5 Z"/></g>
  <g><path style="opacity:1" fill="white" d="M 393.5,64.5 C 394.5,64.5 395.5,64.5 396.5,64.5C 396.5,71.1667 396.5,77.8333 396.5,84.5C 395.5,84.5 394.5,84.5 393.5,84.5C 393.5,77.8333 393.5,71.1667 393.5,64.5 Z"/></g>
  <g><path style="opacity:1" fill="white" d="M 415.5,64.5 C 416.5,64.5 417.5,64.5 418.5,64.5C 418.5,71.1667 418.5,77.8333 418.5,84.5C 417.5,84.5 416.5,84.5 415.5,84.5C 415.5,77.8333 415.5,71.1667 415.5,64.5 Z"/></g>
  <g><path style="opacity:1" fill="white" d="M 448.5,64.5 C 449.5,64.5 450.5,64.5 451.5,64.5C 451.5,71.1667 451.5,77.8333 451.5,84.5C 450.5,84.5 449.5,84.5 448.5,84.5C 448.5,77.8333 448.5,71.1667 448.5,64.5 Z"/></g>
  <g><path style="opacity:1" fill="white" d="M 470.5,64.5 C 471.5,64.5 472.5,64.5 473.5,64.5C 473.5,71.1667 473.5,77.8333 473.5,84.5C 472.5,84.5 471.5,84.5 470.5,84.5C 470.5,77.8333 470.5,71.1667 470.5,64.5 Z"/></g>
  <g><path style="opacity:1" fill="white" d="M 514.5,64.5 C 515.5,64.5 516.5,64.5 517.5,64.5C 517.5,71.1667 517.5,77.8333 517.5,84.5C 516.5,84.5 515.5,84.5 514.5,84.5C 514.5,77.8333 514.5,71.1667 514.5,64.5 Z"/></g>
  <g><path style="opacity:1" fill="white" d="M 613.5,64.5 C 614.5,64.5 615.5,64.5 616.5,64.5C 616.5,71.1667 616.5,77.8333 616.5,84.5C 615.5,84.5 614.5,84.5 613.5,84.5C 613.5,77.8333 613.5,71.1667 613.5,64.5 Z"/></g>
  <g><path style="opacity:1" fill="white" d="M 635.5,64.5 C 636.5,64.5 637.5,64.5 638.5,64.5C 638.5,71.1667 638.5,77.8333 638.5,84.5C 637.5,84.5 636.5,84.5 635.5,84.5C 635.5,77.8333 635.5,71.1667 635.5,64.5 Z"/></g>
  <g><path style="opacity:1" fill="white" d="M 646.5,64.5 C 647.5,64.5 648.5,64.5 649.5,64.5C 649.5,71.1667 649.5,77.8333 649.5,84.5C 648.5,84.5 647.5,84.5 646.5,84.5C 646.5,77.8333 646.5,71.1667 646.5,64.5 Z"/></g>
  <g><path style="opacity:1" fill="white" d="M 668.5,64.5 C 669.5,64.5 670.5,64.5 671.5,64.5C 671.5,71.1667 671.5,77.8333 671.5,84.5C 670.5,84.5 669.5,84.5 668.5,84.5C 668.5,77.8333 668.5,71.1667 668.5,64.5 Z"/></g>
  <g><path style="opacity:1" fill="white" d="M 690.5,64.5 C 691.5,64.5 692.5,64.5 693.5,64.5C 693.5,71.1667 693.5,77.8333 693.5,84.5C 692.5,84.5 691.5,84.5 690.5,84.5C 690.5,77.8333 690.5,71.1667 690.5,64.5 Z"/></g>
  <g><path style="opacity:1" fill="white" d="M 712.5,64.5 C 713.5,64.5 714.5,64.5 715.5,64.5C 715.5,71.1667 715.5,77.8333 715.5,84.5C 714.5,84.5 713.5,84.5 712.5,84.5C 712.5,77.8333 712.5,71.1667 712.5,64.5 Z"/></g>
  <g><path style="opacity:1" fill="white" d="M 767.5,64.5 C 768.5,64.5 769.5,64.5 770.5,64.5C 770.5,71.1667 770.5,77.8333 770.5,84.5C 769.5,84.5 768.5,84.5 767.5,84.5C 767.5,77.8333 767.5,71.1667 767.5,64.5 Z"/></g>
  <g><path style="opacity:1" fill="white" d="M 789.5,64.5 C 790.5,64.5 791.5,64.5 792.5,64.5C 792.5,71.1667 792.5,77.8333 792.5,84.5C 791.5,84.5 790.5,84.5 789.5,84.5C 789.5,77.8333 789.5,71.1667 789.5,64.5 Z"/></g>
  <g><path style="opacity:1" fill="white" d="M 822.5,64.5 C 823.5,64.5 824.5,64.5 825.5,64.5C 825.5,71.1667 825.5,77.8333 825.5,84.5C 824.5,84.5 823.5,84.5 822.5,84.5C 822.5,77.8333 822.5,71.1667 822.5,64.5 Z"/></g>
  <g><path style="opacity:1" fill="white" d="M 844.5,64.5 C 845.5,64.5 846.5,64.5 847.5,64.5C 847.5,71.1667 847.5,77.8333 847.5,84.5C 846.5,84.5 845.5,84.5 844.5,84.5C 844.5,77.8333 844.5,71.1667 844.5,64.5 Z"/></g>
  <g><path style="opacity:1" fill="white" d="M 1031.5,64.5 C 1032.5,64.5 1033.5,64.5 1034.5,64.5C 1034.5,71.1667 1034.5,77.8333 1034.5,84.5C 1033.5,84.5 1032.5,84.5 1031.5,84.5C 1031.5,77.8333 1031.5,71.1667 1031.5,64.5 Z"/></g>
  <g><path style="opacity:1" fill="white" d="M 1052.5,64.5 C 1053.83,64.5 1055.17,64.5 1056.5,64.5C 1056.5,71.1667 1056.5,77.8333 1056.5,84.5C 1055.17,84.5 1053.83,84.5 1052.5,84.5C 1052.5,77.8333 1052.5,71.1667 1052.5,64.5 Z"/></g>
  <g><path style="opacity:1" fill="white" d="M 1085.5,64.5 C 1086.83,64.5 1088.17,64.5 1089.5,64.5C 1089.5,71.1667 1089.5,77.8333 1089.5,84.5C 1088.17,84.5 1086.83,84.5 1085.5,84.5C 1085.5,77.8333 1085.5,71.1667 1085.5,64.5 Z"/></g>
  <g><path style="opacity:1" fill="white" d="M 1107.5,64.5 C 1108.83,64.5 1110.17,64.5 1111.5,64.5C 1111.5,71.1667 1111.5,77.8333 1111.5,84.5C 1110.17,84.5 1108.83,84.5 1107.5,84.5C 1107.5,77.8333 1107.5,71.1667 1107.5,64.5 Z"/></g>
  <g><path style="opacity:1" fill="white" d="M 1129.5,64.5 C 1130.83,64.5 1132.17,64.5 1133.5,64.5C 1133.5,71.1667 1133.5,77.8333 1133.5,84.5C 1132.17,84.5 1130.83,84.5 1129.5,84.5C 1129.5,77.8333 1129.5,71.1667 1129.5,64.5 Z"/></g>
  <g><path style="opacity:1" fill="white" d="M 1173.5,64.5 C 1174.83,64.5 1176.17,64.5 1177.5,64.5C 1177.5,71.1667 1177.5,77.8333 1177.5,84.5C 1176.17,84.5 1174.83,84.5 1173.5,84.5C 1173.5,77.8333 1173.5,71.1667 1173.5,64.5 Z"/></g>
  <g><path style="opacity:1" fill="white" d="M 43.5,72.5 C 42.609,71.8902 41.609,71.5569 40.5,71.5C 39.8466,70.1932 39.1799,68.8599 38.5,67.5C 39.6507,66.269 40.8173,66.269 42,67.5C 42.6077,69.1545 43.1077,70.8211 43.5,72.5 Z"/></g>
  <g><path style="opacity:1" fill="white" d="M 65.5,72.5 C 64.609,71.8902 63.609,71.5569 62.5,71.5C 61.8466,70.1932 61.1799,68.8599 60.5,67.5C 61.6507,66.269 62.8173,66.269 64,67.5C 64.6077,69.1545 65.1077,70.8211 65.5,72.5 Z"/></g>
  <g><path style="opacity:1" fill="white" d="M 98.5,72.5 C 97.609,71.8902 96.609,71.5569 95.5,71.5C 94.8466,70.1932 94.1799,68.8599 93.5,67.5C 94.6507,66.269 95.8173,66.269 97,67.5C 97.6077,69.1545 98.1077,70.8211 98.5,72.5 Z"/></g>
  <g><path style="opacity:1" fill="white" d="M 875.5,67.5 C 876.871,69.936 877.871,72.6027 878.5,75.5C 878.5,76.1667 878.5,76.8333 878.5,77.5C 878.167,77.5 877.833,77.5 877.5,77.5C 876.626,74.2107 875.959,70.8774 875.5,67.5 Z"/></g>
  <g><path style="opacity:1" fill="white" d="M 427.5,70.5 C 428.167,73.8333 428.833,77.1667 429.5,80.5C 427.275,76.3771 425.275,72.0437 423.5,67.5C 426.064,66.4356 427.397,67.4356 427.5,70.5 Z"/></g>
  <g><path style="opacity:1" fill="white" d="M 801.5,70.5 C 802.167,73.8333 802.833,77.1667 803.5,80.5C 801.275,76.3771 799.275,72.0437 797.5,67.5C 800.064,66.4356 801.397,67.4356 801.5,70.5 Z"/></g>
  <g><path style="opacity:1" fill="white" d="M 856.5,70.5 C 857.167,73.8333 857.833,77.1667 858.5,80.5C 856.275,76.3771 854.275,72.0437 852.5,67.5C 855.064,66.4356 856.397,67.4356 856.5,70.5 Z"/></g>
  <g><path style="opacity:1" fill="white" d="M 966.5,70.5 C 967.167,73.8333 967.833,77.1667 968.5,80.5C 966.275,76.3771 964.275,72.0437 962.5,67.5C 965.064,66.4356 966.397,67.4356 966.5,70.5 Z"/></g>
  <g><path style="opacity:1" fill="white" d="M 1021.5,70.5 C 1022.17,73.8333 1022.83,77.1667 1023.5,80.5C 1021.28,76.3771 1019.28,72.0437 1017.5,67.5C 1020.06,66.4356 1021.4,67.4356 1021.5,70.5 Z"/></g>
  <g><path style="opacity:1" fill="white" d="M 875.5,67.5 C 875.959,70.8774 876.626,74.2107 877.5,77.5C 877.5,78.5 877.5,79.5 877.5,80.5C 875.761,76.4672 874.094,72.3005 872.5,68C 873.448,67.5172 874.448,67.3505 875.5,67.5 Z"/></g>
  <g><path style="opacity:1" fill="white" d="M 40.5,71.5 C 41.609,71.5569 42.609,71.8902 43.5,72.5C 44.1667,75.8333 44.8333,79.1667 45.5,82.5C 43.5969,79.0211 41.9302,75.3544 40.5,71.5 Z"/></g>
  <g><path style="opacity:1" fill="white" d="M 62.5,71.5 C 63.609,71.5569 64.609,71.8902 65.5,72.5C 66.1667,75.8333 66.8333,79.1667 67.5,82.5C 65.5969,79.0211 63.9302,75.3544 62.5,71.5 Z"/></g>
  <g><path style="opacity:1" fill="white" d="M 95.5,71.5 C 96.609,71.5569 97.609,71.8902 98.5,72.5C 99.1667,75.8333 99.8333,79.1667 100.5,82.5C 98.5969,79.0211 96.9302,75.3544 95.5,71.5 Z"/></g>
  <g><path style="opacity:1" fill="white" d="M 883.5,70.5 C 883.405,72.7857 882.738,74.7857 881.5,76.5C 881.259,74.1016 881.926,72.1016 883.5,70.5 Z"/></g>
  <g><path style="opacity:1" fill="white" d="M 43.5,72.5 C 45.1015,75.1024 46.4348,77.9357 47.5,81C 47.1639,82.0299 46.4972,82.5299 45.5,82.5C 44.8333,79.1667 44.1667,75.8333 43.5,72.5 Z"/></g>
  <g><path style="opacity:1" fill="white" d="M 65.5,72.5 C 67.1015,75.1024 68.4348,77.9357 69.5,81C 69.1639,82.0299 68.4972,82.5299 67.5,82.5C 66.8333,79.1667 66.1667,75.8333 65.5,72.5 Z"/></g>
  <g><path style="opacity:1" fill="white" d="M 88.5,66.5 C 89.675,66.281 90.675,66.6143 91.5,67.5C 89.5,72.1667 87.5,76.8333 85.5,81.5C 84.675,82.3857 83.675,82.719 82.5,82.5C 83.9402,76.9536 85.9402,71.6202 88.5,66.5 Z"/></g>
  <g><path style="opacity:1" fill="white" d="M 98.5,72.5 C 100.101,75.1024 101.435,77.9357 102.5,81C 102.164,82.0299 101.497,82.5299 100.5,82.5C 99.8333,79.1667 99.1667,75.8333 98.5,72.5 Z"/></g>
  <g><path style="opacity:1" fill="white" d="M 121.5,66.5 C 122.675,66.281 123.675,66.6143 124.5,67.5C 122.5,72.1667 120.5,76.8333 118.5,81.5C 117.675,82.3857 116.675,82.719 115.5,82.5C 116.94,76.9536 118.94,71.6202 121.5,66.5 Z"/></g>
  <g><path style="opacity:1" fill="white" d="M 143.5,66.5 C 144.675,66.281 145.675,66.6143 146.5,67.5C 144.5,72.1667 142.5,76.8333 140.5,81.5C 139.675,82.3857 138.675,82.719 137.5,82.5C 138.94,76.9536 140.94,71.6202 143.5,66.5 Z"/></g>
  <g><path style="opacity:1" fill="white" d="M 883.5,70.5 C 881.926,72.1016 881.259,74.1016 881.5,76.5C 880.391,76.5569 879.391,76.8902 878.5,77.5C 878.5,76.8333 878.5,76.1667 878.5,75.5C 879.67,73.3498 880.67,71.0164 881.5,68.5C 882.325,67.6143 883.325,67.281 884.5,67.5C 884.737,68.791 884.404,69.791 883.5,70.5 Z"/></g>
  <g><path style="opacity:1" fill="white" d="M 440.5,66.5 C 441.552,66.3505 442.552,66.5172 443.5,67C 441.2,72.0676 439.2,77.2343 437.5,82.5C 436.127,82.6567 434.793,82.49 433.5,82C 435.976,76.8819 438.31,71.7152 440.5,66.5 Z"/></g>
  <g><path style="opacity:1" fill="white" d="M 814.5,66.5 C 815.552,66.3505 816.552,66.5172 817.5,67C 815.2,72.0676 813.2,77.2343 811.5,82.5C 810.127,82.6567 808.793,82.49 807.5,82C 809.976,76.8819 812.31,71.7152 814.5,66.5 Z"/></g>
  <g><path style="opacity:1" fill="white" d="M 902.5,66.5 C 903.552,66.3505 904.552,66.5172 905.5,67C 903.2,72.0676 901.2,77.2343 899.5,82.5C 898.127,82.6567 896.793,82.49 895.5,82C 897.976,76.8819 900.31,71.7152 902.5,66.5 Z"/></g>
  <g><path style="opacity:1" fill="white" d="M 881.5,76.5 C 881.833,79.5 880.5,80.8333 877.5,80.5C 877.5,79.5 877.5,78.5 877.5,77.5C 877.833,77.5 878.167,77.5 878.5,77.5C 879.391,76.8902 880.391,76.5569 881.5,76.5 Z"/></g>
  <g><path style="opacity:1" fill="white" d="M 427.5,70.5 C 429.391,73.9572 431.058,77.6239 432.5,81.5C 430.948,82.7979 429.948,82.4646 429.5,80.5C 428.833,77.1667 428.167,73.8333 427.5,70.5 Z"/></g>
  <g><path style="opacity:1" fill="white" d="M 801.5,70.5 C 803.391,73.9572 805.058,77.6239 806.5,81.5C 804.948,82.7979 803.948,82.4646 803.5,80.5C 802.833,77.1667 802.167,73.8333 801.5,70.5 Z"/></g>
  <g><path style="opacity:1" fill="white" d="M 856.5,70.5 C 858.391,73.9572 860.058,77.6239 861.5,81.5C 859.948,82.7979 858.948,82.4646 858.5,80.5C 857.833,77.1667 857.167,73.8333 856.5,70.5 Z"/></g>
  <g><path style="opacity:1" fill="white" d="M 966.5,70.5 C 968.679,74.2025 970.345,78.2025 971.5,82.5C 969.821,82.7148 968.821,82.0481 968.5,80.5C 967.833,77.1667 967.167,73.8333 966.5,70.5 Z"/></g>
  <g><path style="opacity:1" fill="white" d="M 1021.5,70.5 C 1023.39,73.9572 1025.06,77.6239 1026.5,81.5C 1024.95,82.7979 1023.95,82.4646 1023.5,80.5C 1022.83,77.1667 1022.17,73.8333 1021.5,70.5 Z"/></g>
  <g><path style="opacity:1" fill="white" d="M 179.5,82.5 C 183.884,82.1744 188.217,82.5078 192.5,83.5C 190.333,83.8333 188.167,84.1667 186,84.5C 183.39,84.4668 181.223,83.8001 179.5,82.5 Z"/></g>
  <g><path style="opacity:1" fill="white" d="M 498.5,82.5 C 502.884,82.1744 507.217,82.5078 511.5,83.5C 509.333,83.8333 507.167,84.1667 505,84.5C 502.39,84.4668 500.223,83.8001 498.5,82.5 Z"/></g>
  <g><path style="opacity:1" fill="white" d="M 971.5,82.5 C 983.186,82.1678 994.852,82.5011 1006.5,83.5C 1000.67,83.8333 994.833,84.1667 989,84.5C 982.793,84.4958 976.96,83.8291 971.5,82.5 Z"/></g>
  <g><path style="opacity:1" fill="white" d="M 1158.5,82.5 C 1162.55,82.1758 1166.55,82.5091 1170.5,83.5C 1168.5,83.8333 1166.5,84.1667 1164.5,84.5C 1162.05,84.4609 1160.05,83.7943 1158.5,82.5 Z"/></g>
  <g><path style="opacity:1" fill="white" d="M 151.5,87.5 C 152.5,87.5 153.5,87.5 154.5,87.5C 154.5,94.1667 154.5,100.833 154.5,107.5C 153.5,107.5 152.5,107.5 151.5,107.5C 151.5,100.833 151.5,94.1667 151.5,87.5 Z"/></g>
  <g><path style="opacity:1" fill="white" d="M 173.5,87.5 C 174.5,87.5 175.5,87.5 176.5,87.5C 176.5,94.1667 176.5,100.833 176.5,107.5C 175.5,107.5 174.5,107.5 173.5,107.5C 173.5,100.833 173.5,94.1667 173.5,87.5 Z"/></g>
  <g><path style="opacity:1" fill="white" d="M 217.5,87.5 C 218.5,87.5 219.5,87.5 220.5,87.5C 220.5,94.1667 220.5,100.833 220.5,107.5C 219.5,107.5 218.5,107.5 217.5,107.5C 217.5,100.833 217.5,94.1667 217.5,87.5 Z"/></g>
  <g><path style="opacity:1" fill="white" d="M 239.5,87.5 C 240.5,87.5 241.5,87.5 242.5,87.5C 242.5,94.1667 242.5,100.833 242.5,107.5C 241.5,107.5 240.5,107.5 239.5,107.5C 239.5,100.833 239.5,94.1667 239.5,87.5 Z"/></g>
  <g><path style="opacity:1" fill="white" d="M 272.5,87.5 C 273.5,87.5 274.5,87.5 275.5,87.5C 275.5,94.1667 275.5,100.833 275.5,107.5C 274.5,107.5 273.5,107.5 272.5,107.5C 272.5,100.833 272.5,94.1667 272.5,87.5 Z"/></g>
  <g><path style="opacity:1" fill="white" d="M 294.5,87.5 C 295.5,87.5 296.5,87.5 297.5,87.5C 297.5,94.1667 297.5,100.833 297.5,107.5C 296.5,107.5 295.5,107.5 294.5,107.5C 294.5,100.833 294.5,94.1667 294.5,87.5 Z"/></g>
  <g><path style="opacity:1" fill="white" d="M 327.5,87.5 C 328.5,87.5 329.5,87.5 330.5,87.5C 330.5,94.1667 330.5,100.833 330.5,107.5C 329.5,107.5 328.5,107.5 327.5,107.5C 327.5,100.833 327.5,94.1667 327.5,87.5 Z"/></g>
  <g><path style="opacity:1" fill="white" d="M 349.5,87.5 C 350.5,87.5 351.5,87.5 352.5,87.5C 352.5,94.1667 352.5,100.833 352.5,107.5C 351.5,107.5 350.5,107.5 349.5,107.5C 349.5,100.833 349.5,94.1667 349.5,87.5 Z"/></g>
  <g><path style="opacity:1" fill="white" d="M 371.5,87.5 C 372.5,87.5 373.5,87.5 374.5,87.5C 374.5,94.1667 374.5,100.833 374.5,107.5C 373.5,107.5 372.5,107.5 371.5,107.5C 371.5,100.833 371.5,94.1667 371.5,87.5 Z"/></g>
  <g><path style="opacity:1" fill="white" d="M 393.5,87.5 C 394.5,87.5 395.5,87.5 396.5,87.5C 396.5,94.1667 396.5,100.833 396.5,107.5C 395.5,107.5 394.5,107.5 393.5,107.5C 393.5,100.833 393.5,94.1667 393.5,87.5 Z"/></g>
  <g><path style="opacity:1" fill="white" d="M 415.5,87.5 C 416.5,87.5 417.5,87.5 418.5,87.5C 418.5,94.1667 418.5,100.833 418.5,107.5C 417.5,107.5 416.5,107.5 415.5,107.5C 415.5,100.833 415.5,94.1667 415.5,87.5 Z"/></g>
  <g><path style="opacity:1" fill="white" d="M 448.5,87.5 C 449.5,87.5 450.5,87.5 451.5,87.5C 451.5,94.1667 451.5,100.833 451.5,107.5C 450.5,107.5 449.5,107.5 448.5,107.5C 448.5,100.833 448.5,94.1667 448.5,87.5 Z"/></g>
  <g><path style="opacity:1" fill="white" d="M 470.5,87.5 C 471.5,87.5 472.5,87.5 473.5,87.5C 473.5,94.1667 473.5,100.833 473.5,107.5C 472.5,107.5 471.5,107.5 470.5,107.5C 470.5,100.833 470.5,94.1667 470.5,87.5 Z"/></g>
  <g><path style="opacity:1" fill="white" d="M 492.5,87.5 C 493.5,87.5 494.5,87.5 495.5,87.5C 495.5,94.1667 495.5,100.833 495.5,107.5C 494.5,107.5 493.5,107.5 492.5,107.5C 492.5,100.833 492.5,94.1667 492.5,87.5 Z"/></g>
  <g><path style="opacity:1" fill="white" d="M 613.5,87.5 C 614.5,87.5 615.5,87.5 616.5,87.5C 616.5,94.1667 616.5,100.833 616.5,107.5C 615.5,107.5 614.5,107.5 613.5,107.5C 613.5,100.833 613.5,94.1667 613.5,87.5 Z"/></g>
  <g><path style="opacity:1" fill="white" d="M 635.5,87.5 C 636.5,87.5 637.5,87.5 638.5,87.5C 638.5,94.1667 638.5,100.833 638.5,107.5C 637.5,107.5 636.5,107.5 635.5,107.5C 635.5,100.833 635.5,94.1667 635.5,87.5 Z"/></g>
  <g><path style="opacity:1" fill="white" d="M 646.5,87.5 C 647.5,87.5 648.5,87.5 649.5,87.5C 649.5,94.1667 649.5,100.833 649.5,107.5C 648.5,107.5 647.5,107.5 646.5,107.5C 646.5,100.833 646.5,94.1667 646.5,87.5 Z"/></g>
  <g><path style="opacity:1" fill="white" d="M 668.5,87.5 C 669.5,87.5 670.5,87.5 671.5,87.5C 671.5,94.1667 671.5,100.833 671.5,107.5C 670.5,107.5 669.5,107.5 668.5,107.5C 668.5,100.833 668.5,94.1667 668.5,87.5 Z"/></g>
  <g><path style="opacity:1" fill="white" d="M 690.5,87.5 C 691.5,87.5 692.5,87.5 693.5,87.5C 693.5,94.1667 693.5,100.833 693.5,107.5C 692.5,107.5 691.5,107.5 690.5,107.5C 690.5,100.833 690.5,94.1667 690.5,87.5 Z"/></g>
  <g><path style="opacity:1" fill="white" d="M 712.5,87.5 C 713.5,87.5 714.5,87.5 715.5,87.5C 715.5,94.1667 715.5,100.833 715.5,107.5C 714.5,107.5 713.5,107.5 712.5,107.5C 712.5,100.833 712.5,94.1667 712.5,87.5 Z"/></g>
  <g><path style="opacity:1" fill="white" d="M 767.5,87.5 C 768.5,87.5 769.5,87.5 770.5,87.5C 770.5,94.1667 770.5,100.833 770.5,107.5C 769.5,107.5 768.5,107.5 767.5,107.5C 767.5,100.833 767.5,94.1667 767.5,87.5 Z"/></g>
  <g><path style="opacity:1" fill="white" d="M 789.5,87.5 C 790.5,87.5 791.5,87.5 792.5,87.5C 792.5,94.1667 792.5,100.833 792.5,107.5C 791.5,107.5 790.5,107.5 789.5,107.5C 789.5,100.833 789.5,94.1667 789.5,87.5 Z"/></g>
  <g><path style="opacity:1" fill="white" d="M 822.5,87.5 C 823.5,87.5 824.5,87.5 825.5,87.5C 825.5,94.1667 825.5,100.833 825.5,107.5C 824.5,107.5 823.5,107.5 822.5,107.5C 822.5,100.833 822.5,94.1667 822.5,87.5 Z"/></g>
  <g><path style="opacity:1" fill="white" d="M 844.5,87.5 C 845.5,87.5 846.5,87.5 847.5,87.5C 847.5,94.1667 847.5,100.833 847.5,107.5C 846.5,107.5 845.5,107.5 844.5,107.5C 844.5,100.833 844.5,94.1667 844.5,87.5 Z"/></g>
  <g><path style="opacity:1" fill="white" d="M 866.5,87.5 C 867.5,87.5 868.5,87.5 869.5,87.5C 869.5,94.1667 869.5,100.833 869.5,107.5C 868.5,107.5 867.5,107.5 866.5,107.5C 866.5,100.833 866.5,94.1667 866.5,87.5 Z"/></g>
  <g><path style="opacity:1" fill="white" d="M 888.5,87.5 C 889.5,87.5 890.5,87.5 891.5,87.5C 891.5,94.1667 891.5,100.833 891.5,107.5C 890.5,107.5 889.5,107.5 888.5,107.5C 888.5,100.833 888.5,94.1667 888.5,87.5 Z"/></g>
  <g><path style="opacity:1" fill="white" d="M 1031.5,87.5 C 1032.5,87.5 1033.5,87.5 1034.5,87.5C 1034.5,94.1667 1034.5,100.833 1034.5,107.5C 1033.5,107.5 1032.5,107.5 1031.5,107.5C 1031.5,100.833 1031.5,94.1667 1031.5,87.5 Z"/></g>
  <g><path style="opacity:1" fill="white" d="M 1052.5,87.5 C 1053.83,87.5 1055.17,87.5 1056.5,87.5C 1056.5,94.1667 1056.5,100.833 1056.5,107.5C 1055.17,107.5 1053.83,107.5 1052.5,107.5C 1052.5,100.833 1052.5,94.1667 1052.5,87.5 Z"/></g>
  <g><path style="opacity:1" fill="white" d="M 1085.5,87.5 C 1086.83,87.5 1088.17,87.5 1089.5,87.5C 1089.5,94.1667 1089.5,100.833 1089.5,107.5C 1088.17,107.5 1086.83,107.5 1085.5,107.5C 1085.5,100.833 1085.5,94.1667 1085.5,87.5 Z"/></g>
  <g><path style="opacity:1" fill="white" d="M 1107.5,87.5 C 1108.83,87.5 1110.17,87.5 1111.5,87.5C 1111.5,94.1667 1111.5,100.833 1111.5,107.5C 1110.17,107.5 1108.83,107.5 1107.5,107.5C 1107.5,100.833 1107.5,94.1667 1107.5,87.5 Z"/></g>
  <g><path style="opacity:1" fill="white" d="M 1129.5,87.5 C 1130.83,87.5 1132.17,87.5 1133.5,87.5C 1133.5,94.1667 1133.5,100.833 1133.5,107.5C 1132.17,107.5 1130.83,107.5 1129.5,107.5C 1129.5,100.833 1129.5,94.1667 1129.5,87.5 Z"/></g>
  <g><path style="opacity:1" fill="white" d="M 1151.5,87.5 C 1152.83,87.5 1154.17,87.5 1155.5,87.5C 1155.5,94.1667 1155.5,100.833 1155.5,107.5C 1154.17,107.5 1152.83,107.5 1151.5,107.5C 1151.5,100.833 1151.5,94.1667 1151.5,87.5 Z"/></g>
  <g><path style="opacity:1" fill="white" d="M 1012.5,92.5 C 1012.5,96.1667 1012.5,99.8333 1012.5,103.5C 1011.95,106.752 1010.29,107.752 1007.5,106.5C 1011.5,100.833 1011.5,95.1667 1007.5,89.5C 1010.29,88.2482 1011.95,89.2482 1012.5,92.5 Z"/></g>
  <g><path style="opacity:1" fill="white" d="M 54.5,95.5 C 53.609,94.8902 52.609,94.5569 51.5,94.5C 50.8466,93.1932 50.1799,91.8599 49.5,90.5C 50.6507,89.269 51.8173,89.269 53,90.5C 53.6077,92.1545 54.1077,93.8211 54.5,95.5 Z"/></g>
  <g><path style="opacity:1" fill="white" d="M 72.5,90.5 C 74.4725,93.0836 75.4725,96.0836 75.5,99.5C 73.6896,96.855 72.6896,93.855 72.5,90.5 Z"/></g>
  <g><path style="opacity:1" fill="white" d="M 105.5,90.5 C 107.472,93.0836 108.472,96.0836 108.5,99.5C 106.69,96.855 105.69,93.855 105.5,90.5 Z"/></g>
  <g><path style="opacity:1" fill="white" d="M 51.5,94.5 C 52.609,94.5569 53.609,94.8902 54.5,95.5C 55.1667,98.8333 55.8333,102.167 56.5,105.5C 54.5969,102.021 52.9302,98.3544 51.5,94.5 Z"/></g>
  <g><path style="opacity:1" fill="white" d="M 75.5,103.5 C 76.9331,101.442 77.5997,99.1085 77.5,96.5C 77.8333,94.5 78.1667,92.5 78.5,90.5C 79.8734,90.3433 81.2068,90.51 82.5,91C 80.6654,95.0037 79.3321,99.1704 78.5,103.5C 77.5,103.5 76.5,103.5 75.5,103.5 Z"/></g>
  <g><path style="opacity:1" fill="white" d="M 108.5,103.5 C 109.933,101.442 110.6,99.1085 110.5,96.5C 110.833,94.5 111.167,92.5 111.5,90.5C 112.873,90.3433 114.207,90.51 115.5,91C 113.665,95.0037 112.332,99.1704 111.5,103.5C 110.5,103.5 109.5,103.5 108.5,103.5 Z"/></g>
  <g><path style="opacity:1" fill="white" d="M 1012.5,92.5 C 1015.17,96.1667 1015.17,99.8333 1012.5,103.5C 1012.5,99.8333 1012.5,96.1667 1012.5,92.5 Z"/></g>
  <g><path style="opacity:1" fill="white" d="M 54.5,95.5 C 56.1015,98.1024 57.4348,100.936 58.5,104C 58.1639,105.03 57.4972,105.53 56.5,105.5C 55.8333,102.167 55.1667,98.8333 54.5,95.5 Z"/></g>
  <g><path style="opacity:1" fill="white" d="M 132.5,89.5 C 133.675,89.281 134.675,89.6143 135.5,90.5C 133.5,95.1667 131.5,99.8333 129.5,104.5C 128.675,105.386 127.675,105.719 126.5,105.5C 127.94,99.9536 129.94,94.6202 132.5,89.5 Z"/></g>
  <g><path style="opacity:1" fill="white" d="M 72.5,90.5 C 72.6896,93.855 73.6896,96.855 75.5,99.5C 76.1667,98.5 76.8333,97.5 77.5,96.5C 77.5997,99.1085 76.9331,101.442 75.5,103.5C 74.5028,103.53 73.8361,103.03 73.5,102C 72.3585,98.2401 71.0251,94.5735 69.5,91C 70.448,90.5172 71.448,90.3505 72.5,90.5 Z"/></g>
  <g><path style="opacity:1" fill="white" d="M 105.5,90.5 C 105.69,93.855 106.69,96.855 108.5,99.5C 109.167,98.5 109.833,97.5 110.5,96.5C 110.6,99.1085 109.933,101.442 108.5,103.5C 107.503,103.53 106.836,103.03 106.5,102C 105.358,98.2401 104.025,94.5735 102.5,91C 103.448,90.5172 104.448,90.3505 105.5,90.5 Z"/></g>
  <g><path style="opacity:1" fill="white" d="M 179.5,105.5 C 191.186,105.168 202.852,105.501 214.5,106.5C 208.667,106.833 202.833,107.167 197,107.5C 190.793,107.496 184.96,106.829 179.5,105.5 Z"/></g>
  <g><path style="opacity:1" fill="white" d="M 245.5,105.5 C 253.528,105.169 261.528,105.502 269.5,106.5C 265.5,106.833 261.5,107.167 257.5,107.5C 253.107,107.491 249.107,106.824 245.5,105.5 Z"/></g>
  <g><path style="opacity:1" fill="white" d="M 300.5,105.5 C 308.528,105.169 316.528,105.502 324.5,106.5C 320.5,106.833 316.5,107.167 312.5,107.5C 308.107,107.491 304.107,106.824 300.5,105.5 Z"/></g>
  <g><path style="opacity:1" fill="white" d="M 355.5,105.5 C 359.884,105.174 364.217,105.508 368.5,106.5C 366.333,106.833 364.167,107.167 362,107.5C 359.39,107.467 357.223,106.8 355.5,105.5 Z"/></g>
  <g><path style="opacity:1" fill="white" d="M 498.5,105.5 C 510.186,105.168 521.852,105.501 533.5,106.5C 527.667,106.833 521.833,107.167 516,107.5C 509.793,107.496 503.96,106.829 498.5,105.5 Z"/></g>
  <g><path style="opacity:1" fill="white" d="M 674.5,105.5 C 678.884,105.174 683.217,105.508 687.5,106.5C 685.333,106.833 683.167,107.167 681,107.5C 678.39,107.467 676.223,106.8 674.5,105.5 Z"/></g>
  <g><path style="opacity:1" fill="white" d="M 971.5,105.5 C 983.186,105.168 994.852,105.501 1006.5,106.5C 1000.67,106.833 994.833,107.167 989,107.5C 982.793,107.496 976.96,106.829 971.5,105.5 Z"/></g>
  <g><path style="opacity:1" fill="white" d="M 1158.5,105.5 C 1169.85,105.168 1181.19,105.501 1192.5,106.5C 1186.83,106.833 1181.17,107.167 1175.5,107.5C 1169.46,107.496 1163.79,106.829 1158.5,105.5 Z"/></g>
  <g><path style="opacity:1" fill="white" d="M 151.5,110.5 C 152.5,110.5 153.5,110.5 154.5,110.5C 154.5,117.167 154.5,123.833 154.5,130.5C 153.5,130.5 152.5,130.5 151.5,130.5C 151.5,123.833 151.5,117.167 151.5,110.5 Z"/></g>
  <g><path style="opacity:1" fill="white" d="M 217.5,110.5 C 218.5,110.5 219.5,110.5 220.5,110.5C 220.5,117.167 220.5,123.833 220.5,130.5C 219.5,130.5 218.5,130.5 217.5,130.5C 217.5,123.833 217.5,117.167 217.5,110.5 Z"/></g>
  <g><path style="opacity:1" fill="white" d="M 393.5,110.5 C 394.5,110.5 395.5,110.5 396.5,110.5C 396.5,117.167 396.5,123.833 396.5,130.5C 395.5,130.5 394.5,130.5 393.5,130.5C 393.5,123.833 393.5,117.167 393.5,110.5 Z"/></g>
  <g><path style="opacity:1" fill="white" d="M 415.5,110.5 C 416.5,110.5 417.5,110.5 418.5,110.5C 418.5,117.167 418.5,123.833 418.5,130.5C 417.5,130.5 416.5,130.5 415.5,130.5C 415.5,123.833 415.5,117.167 415.5,110.5 Z"/></g>
  <g><path style="opacity:1" fill="white" d="M 448.5,110.5 C 449.5,110.5 450.5,110.5 451.5,110.5C 451.5,117.167 451.5,123.833 451.5,130.5C 450.5,130.5 449.5,130.5 448.5,130.5C 448.5,123.833 448.5,117.167 448.5,110.5 Z"/></g>
  <g><path style="opacity:1" fill="white" d="M 470.5,110.5 C 471.5,110.5 472.5,110.5 473.5,110.5C 473.5,117.167 473.5,123.833 473.5,130.5C 472.5,130.5 471.5,130.5 470.5,130.5C 470.5,123.833 470.5,117.167 470.5,110.5 Z"/></g>
  <g><path style="opacity:1" fill="white" d="M 536.5,110.5 C 537.5,110.5 538.5,110.5 539.5,110.5C 539.5,117.167 539.5,123.833 539.5,130.5C 538.5,130.5 537.5,130.5 536.5,130.5C 536.5,123.833 536.5,117.167 536.5,110.5 Z"/></g>
  <g><path style="opacity:1" fill="white" d="M 613.5,110.5 C 614.5,110.5 615.5,110.5 616.5,110.5C 616.5,117.167 616.5,123.833 616.5,130.5C 615.5,130.5 614.5,130.5 613.5,130.5C 613.5,123.833 613.5,117.167 613.5,110.5 Z"/></g>
  <g><path style="opacity:1" fill="white" d="M 635.5,110.5 C 636.5,110.5 637.5,110.5 638.5,110.5C 638.5,117.167 638.5,123.833 638.5,130.5C 637.5,130.5 636.5,130.5 635.5,130.5C 635.5,123.833 635.5,117.167 635.5,110.5 Z"/></g>
  <g><path style="opacity:1" fill="white" d="M 767.5,110.5 C 768.5,110.5 769.5,110.5 770.5,110.5C 770.5,117.167 770.5,123.833 770.5,130.5C 769.5,130.5 768.5,130.5 767.5,130.5C 767.5,123.833 767.5,117.167 767.5,110.5 Z"/></g>
  <g><path style="opacity:1" fill="white" d="M 789.5,110.5 C 790.5,110.5 791.5,110.5 792.5,110.5C 792.5,117.167 792.5,123.833 792.5,130.5C 791.5,130.5 790.5,130.5 789.5,130.5C 789.5,123.833 789.5,117.167 789.5,110.5 Z"/></g>
  <g><path style="opacity:1" fill="white" d="M 822.5,110.5 C 823.5,110.5 824.5,110.5 825.5,110.5C 825.5,117.167 825.5,123.833 825.5,130.5C 824.5,130.5 823.5,130.5 822.5,130.5C 822.5,123.833 822.5,117.167 822.5,110.5 Z"/></g>
  <g><path style="opacity:1" fill="white" d="M 844.5,110.5 C 845.5,110.5 846.5,110.5 847.5,110.5C 847.5,117.167 847.5,123.833 847.5,130.5C 846.5,130.5 845.5,130.5 844.5,130.5C 844.5,123.833 844.5,117.167 844.5,110.5 Z"/></g>
  <g><path style="opacity:1" fill="white" d="M 866.5,110.5 C 867.5,110.5 868.5,110.5 869.5,110.5C 869.5,117.167 869.5,123.833 869.5,130.5C 868.5,130.5 867.5,130.5 866.5,130.5C 866.5,123.833 866.5,117.167 866.5,110.5 Z"/></g>
  <g><path style="opacity:1" fill="white" d="M 888.5,110.5 C 889.5,110.5 890.5,110.5 891.5,110.5C 891.5,117.167 891.5,123.833 891.5,130.5C 890.5,130.5 889.5,130.5 888.5,130.5C 888.5,123.833 888.5,117.167 888.5,110.5 Z"/></g>
  <g><path style="opacity:1" fill="white" d="M 965.5,110.5 C 966.5,110.5 967.5,110.5 968.5,110.5C 968.5,117.167 968.5,123.833 968.5,130.5C 967.5,130.5 966.5,130.5 965.5,130.5C 965.5,123.833 965.5,117.167 965.5,110.5 Z"/></g>
  <g><path style="opacity:1" fill="white" d="M 1063.5,110.5 C 1064.83,110.5 1066.17,110.5 1067.5,110.5C 1067.5,117.167 1067.5,123.833 1067.5,130.5C 1066.17,130.5 1064.83,130.5 1063.5,130.5C 1063.5,123.833 1063.5,117.167 1063.5,110.5 Z"/></g>
  <g><path style="opacity:1" fill="white" d="M 1085.5,110.5 C 1086.83,110.5 1088.17,110.5 1089.5,110.5C 1089.5,117.167 1089.5,123.833 1089.5,130.5C 1088.17,130.5 1086.83,130.5 1085.5,130.5C 1085.5,123.833 1085.5,117.167 1085.5,110.5 Z"/></g>
  <g><path style="opacity:1" fill="white" d="M 1107.5,110.5 C 1108.83,110.5 1110.17,110.5 1111.5,110.5C 1111.5,117.167 1111.5,123.833 1111.5,130.5C 1110.17,130.5 1108.83,130.5 1107.5,130.5C 1107.5,123.833 1107.5,117.167 1107.5,110.5 Z"/></g>
  <g><path style="opacity:1" fill="white" d="M 1129.5,110.5 C 1130.83,110.5 1132.17,110.5 1133.5,110.5C 1133.5,117.167 1133.5,123.833 1133.5,130.5C 1132.17,130.5 1130.83,130.5 1129.5,130.5C 1129.5,123.833 1129.5,117.167 1129.5,110.5 Z"/></g>
  <g><path style="opacity:1" fill="white" d="M 1195.5,110.5 C 1196.83,110.5 1198.17,110.5 1199.5,110.5C 1199.5,117.167 1199.5,123.833 1199.5,130.5C 1198.17,130.5 1196.83,130.5 1195.5,130.5C 1195.5,123.833 1195.5,117.167 1195.5,110.5 Z"/></g>
  <g><path style="opacity:1" fill="white" d="M 65.5,118.5 C 64.609,117.89 63.609,117.557 62.5,117.5C 61.8466,116.193 61.1799,114.86 60.5,113.5C 61.6507,112.269 62.8173,112.269 64,113.5C 64.6077,115.154 65.1077,116.821 65.5,118.5 Z"/></g>
  <g><path style="opacity:1" fill="white" d="M 98.5,118.5 C 97.609,117.89 96.609,117.557 95.5,117.5C 94.8466,116.193 94.1799,114.86 93.5,113.5C 94.6507,112.269 95.8173,112.269 97,113.5C 97.6077,115.154 98.1077,116.821 98.5,118.5 Z"/></g>
  <g><path style="opacity:1" fill="white" d="M 285.5,118.5 C 284.609,117.89 283.609,117.557 282.5,117.5C 281.847,116.193 281.18,114.86 280.5,113.5C 281.651,112.269 282.817,112.269 284,113.5C 284.608,115.154 285.108,116.821 285.5,118.5 Z"/></g>
  <g><path style="opacity:1" fill="white" d="M 340.5,118.5 C 339.609,117.89 338.609,117.557 337.5,117.5C 336.847,116.193 336.18,114.86 335.5,113.5C 336.651,112.269 337.817,112.269 339,113.5C 339.608,115.154 340.108,116.821 340.5,118.5 Z"/></g>
  <g><path style="opacity:1" fill="white" d="M 658.5,116.5 C 659.167,119.833 659.833,123.167 660.5,126.5C 658.275,122.377 656.275,118.044 654.5,113.5C 657.064,112.436 658.397,113.436 658.5,116.5 Z"/></g>
  <g><path style="opacity:1" fill="white" d="M 62.5,117.5 C 63.609,117.557 64.609,117.89 65.5,118.5C 66.1667,121.833 66.8333,125.167 67.5,128.5C 65.5969,125.021 63.9302,121.354 62.5,117.5 Z"/></g>
  <g><path style="opacity:1" fill="white" d="M 95.5,117.5 C 96.609,117.557 97.609,117.89 98.5,118.5C 99.1667,121.833 99.8333,125.167 100.5,128.5C 98.5969,125.021 96.9302,121.354 95.5,117.5 Z"/></g>
  <g><path style="opacity:1" fill="white" d="M 282.5,117.5 C 283.609,117.557 284.609,117.89 285.5,118.5C 286.167,121.833 286.833,125.167 287.5,128.5C 285.597,125.021 283.93,121.354 282.5,117.5 Z"/></g>
  <g><path style="opacity:1" fill="white" d="M 337.5,117.5 C 338.609,117.557 339.609,117.89 340.5,118.5C 341.167,121.833 341.833,125.167 342.5,128.5C 340.597,125.021 338.93,121.354 337.5,117.5 Z"/></g>
  <g><path style="opacity:1" fill="white" d="M 65.5,118.5 C 67.4032,121.53 68.7365,124.863 69.5,128.5C 68.8333,128.5 68.1667,128.5 67.5,128.5C 66.8333,125.167 66.1667,121.833 65.5,118.5 Z"/></g>
  <g><path style="opacity:1" fill="white" d="M 82.5,128.5 C 83.7103,122.419 86.2103,117.086 90,112.5C 90.5,112.833 91,113.167 91.5,113.5C 89.6667,117.833 87.8333,122.167 86,126.5C 85.2904,127.973 84.1238,128.64 82.5,128.5 Z"/></g>
  <g><path style="opacity:1" fill="white" d="M 98.5,118.5 C 100.403,121.53 101.737,124.863 102.5,128.5C 101.833,128.5 101.167,128.5 100.5,128.5C 99.8333,125.167 99.1667,121.833 98.5,118.5 Z"/></g>
  <g><path style="opacity:1" fill="white" d="M 115.5,128.5 C 116.71,122.419 119.21,117.086 123,112.5C 123.5,112.833 124,113.167 124.5,113.5C 122.667,117.833 120.833,122.167 119,126.5C 118.29,127.973 117.124,128.64 115.5,128.5 Z"/></g>
  <g><path style="opacity:1" fill="white" d="M 285.5,118.5 C 287.403,121.53 288.737,124.863 289.5,128.5C 288.833,128.5 288.167,128.5 287.5,128.5C 286.833,125.167 286.167,121.833 285.5,118.5 Z"/></g>
  <g><path style="opacity:1" fill="white" d="M 340.5,118.5 C 342.403,121.53 343.737,124.863 344.5,128.5C 343.833,128.5 343.167,128.5 342.5,128.5C 341.833,125.167 341.167,121.833 340.5,118.5 Z"/></g>
  <g><path style="opacity:1" fill="white" d="M 378.5,130.5 C 378.5,129.833 378.5,129.167 378.5,128.5C 380.652,123.526 382.819,118.526 385,113.5C 386.049,112.483 387.216,112.316 388.5,113C 386.2,118.068 384.2,123.234 382.5,128.5C 380.801,128.527 379.467,129.194 378.5,130.5 Z"/></g>
  <g><path style="opacity:1" fill="white" d="M 697.5,130.5 C 697.5,129.833 697.5,129.167 697.5,128.5C 699.652,123.526 701.819,118.526 704,113.5C 705.049,112.483 706.216,112.316 707.5,113C 705.2,118.068 703.2,123.234 701.5,128.5C 699.801,128.527 698.467,129.194 697.5,130.5 Z"/></g>
  <g><path style="opacity:1" fill="white" d="M 1016.5,130.5 C 1016.5,129.833 1016.5,129.167 1016.5,128.5C 1018.65,123.526 1020.82,118.526 1023,113.5C 1024.05,112.483 1025.22,112.316 1026.5,113C 1024.2,118.068 1022.2,123.234 1020.5,128.5C 1018.8,128.527 1017.47,129.194 1016.5,130.5 Z"/></g>
  <g><path style="opacity:1" fill="white" d="M 658.5,116.5 C 660.679,120.203 662.345,124.203 663.5,128.5C 661.821,128.715 660.821,128.048 660.5,126.5C 659.833,123.167 659.167,119.833 658.5,116.5 Z"/></g>
  <g><path style="opacity:1" fill="white" d="M 69.5,128.5 C 73.8333,128.5 78.1667,128.5 82.5,128.5C 80.777,129.8 78.6103,130.467 76,130.5C 73.3897,130.467 71.223,129.8 69.5,128.5 Z"/></g>
  <g><path style="opacity:1" fill="white" d="M 102.5,128.5 C 106.833,128.5 111.167,128.5 115.5,128.5C 113.777,129.8 111.61,130.467 109,130.5C 106.39,130.467 104.223,129.8 102.5,128.5 Z"/></g>
  <g><path style="opacity:1" fill="white" d="M 157.5,128.5 C 176.512,128.167 195.512,128.5 214.5,129.5C 205,129.833 195.5,130.167 186,130.5C 176.142,130.498 166.642,129.832 157.5,128.5 Z"/></g>
  <g><path style="opacity:1" fill="white" d="M 223.5,128.5 C 242.512,128.167 261.512,128.5 280.5,129.5C 271,129.833 261.5,130.167 252,130.5C 242.142,130.498 232.642,129.832 223.5,128.5 Z"/></g>
  <g><path style="opacity:1" fill="white" d="M 289.5,128.5 C 304.848,128.167 320.181,128.501 335.5,129.5C 327.833,129.833 320.167,130.167 312.5,130.5C 304.47,130.498 296.803,129.831 289.5,128.5 Z"/></g>
  <g><path style="opacity:1" fill="white" d="M 344.5,128.5 C 355.833,128.5 367.167,128.5 378.5,128.5C 378.5,129.167 378.5,129.833 378.5,130.5C 366.784,131.144 355.451,130.478 344.5,128.5 Z"/></g>
  <g><path style="opacity:1" fill="white" d="M 399.5,128.5 C 403.884,128.174 408.217,128.508 412.5,129.5C 410.333,129.833 408.167,130.167 406,130.5C 403.39,130.467 401.223,129.8 399.5,128.5 Z"/></g>
  <g><path style="opacity:1" fill="white" d="M 454.5,128.5 C 458.884,128.174 463.217,128.508 467.5,129.5C 465.333,129.833 463.167,130.167 461,130.5C 458.39,130.467 456.223,129.8 454.5,128.5 Z"/></g>
  <g><path style="opacity:1" fill="white" d="M 510.5,128.5 C 510.5,129.167 510.5,129.833 510.5,130.5C 465.167,129.833 465.167,129.167 510.5,128.5 Z"/></g>
  <g><path style="opacity:1" fill="white" d="M 510.5,128.5 C 541.167,129.167 541.167,129.833 510.5,130.5C 510.5,129.833 510.5,129.167 510.5,128.5 Z"/></g>
  <g><path style="opacity:1" fill="white" d="M 619.5,128.5 C 623.884,128.174 628.217,128.508 632.5,129.5C 630.333,129.833 628.167,130.167 626,130.5C 623.39,130.467 621.223,129.8 619.5,128.5 Z"/></g>
  <g><path style="opacity:1" fill="white" d="M 663.5,128.5 C 674.833,128.5 686.167,128.5 697.5,128.5C 697.5,129.167 697.5,129.833 697.5,130.5C 685.784,131.144 674.451,130.478 663.5,128.5 Z"/></g>
  <g><path style="opacity:1" fill="white" d="M 773.5,128.5 C 777.884,128.174 782.217,128.508 786.5,129.5C 784.333,129.833 782.167,130.167 780,130.5C 777.39,130.467 775.223,129.8 773.5,128.5 Z"/></g>
  <g><path style="opacity:1" fill="white" d="M 828.5,128.5 C 832.884,128.174 837.217,128.508 841.5,129.5C 839.333,129.833 837.167,130.167 835,130.5C 832.39,130.467 830.223,129.8 828.5,128.5 Z"/></g>
  <g><path style="opacity:1" fill="white" d="M 872.5,128.5 C 876.884,128.174 881.217,128.508 885.5,129.5C 883.333,129.833 881.167,130.167 879,130.5C 876.39,130.467 874.223,129.8 872.5,128.5 Z"/></g>
  <g><path style="opacity:1" fill="white" d="M 1016.5,128.5 C 1016.5,129.167 1016.5,129.833 1016.5,130.5C 956.5,129.833 956.5,129.167 1016.5,128.5 Z"/></g>
  <g><path style="opacity:1" fill="white" d="M 1026.5,128.5 C 1037.85,128.168 1049.19,128.501 1060.5,129.5C 1054.83,129.833 1049.17,130.167 1043.5,130.5C 1037.46,130.496 1031.79,129.829 1026.5,128.5 Z"/></g>
  <g><path style="opacity:1" fill="white" d="M 1092.5,128.5 C 1096.55,128.176 1100.55,128.509 1104.5,129.5C 1102.5,129.833 1100.5,130.167 1098.5,130.5C 1096.05,130.461 1094.05,129.794 1092.5,128.5 Z"/></g>
  <g><path style="opacity:1" fill="white" d="M 1159.5,128.5 C 1159.5,129.167 1159.5,129.833 1159.5,130.5C 1128.83,129.833 1128.83,129.167 1159.5,128.5 Z"/></g>
  <g><path style="opacity:1" fill="white" d="M 1159.5,128.5 C 1203.5,129.167 1203.5,129.833 1159.5,130.5C 1159.5,129.833 1159.5,129.167 1159.5,128.5 Z"/></g>
</svg>
